<svg version="1.1" id="Camada_1" xmlns="http://www.w3.org/2000/svg" xmlns:xlink="http://www.w3.org/1999/xlink" x="0px" y="0px" viewBox="0 0 280 170" enable-background="new 0 0 280 170" xml:space="preserve" width="1786"  height="1084" ><g>
        <path fill="#093855" d="M41.5,147.4c-0.1,0.1-0.1,0.2-0.3,0.2c-0.1,0-0.2-0.1-0.3-0.2c-0.1-0.1-0.3-0.3-0.6-0.4  c-0.2-0.1-0.5-0.3-0.9-0.4c-0.3-0.1-0.8-0.2-1.3-0.2s-1,0.1-1.4,0.2c-0.4,0.1-0.7,0.3-1,0.6c-0.3,0.3-0.5,0.5-0.6,0.9  c-0.1,0.3-0.2,0.7-0.2,1c0,0.5,0.1,0.9,0.3,1.2c0.2,0.3,0.5,0.6,0.8,0.8c0.3,0.2,0.7,0.4,1.1,0.6c0.4,0.1,0.9,0.3,1.3,0.4  c0.4,0.1,0.9,0.3,1.3,0.5c0.4,0.2,0.8,0.4,1.1,0.7c0.3,0.3,0.6,0.6,0.8,1c0.2,0.4,0.3,0.9,0.3,1.4c0,0.6-0.1,1.1-0.3,1.7  c-0.2,0.5-0.5,1-0.9,1.4c-0.4,0.4-0.9,0.7-1.4,0.9c-0.6,0.2-1.2,0.3-1.9,0.3c-0.9,0-1.7-0.2-2.4-0.5c-0.7-0.3-1.3-0.8-1.8-1.3  l0.3-0.4c0.1-0.1,0.2-0.1,0.3-0.1c0.1,0,0.1,0,0.2,0.1c0.1,0.1,0.2,0.2,0.3,0.3c0.1,0.1,0.3,0.2,0.5,0.4c0.2,0.1,0.4,0.3,0.6,0.4  c0.2,0.1,0.5,0.2,0.8,0.3c0.3,0.1,0.7,0.1,1.1,0.1c0.6,0,1.1-0.1,1.5-0.3c0.4-0.2,0.8-0.4,1.1-0.7c0.3-0.3,0.5-0.6,0.7-1  c0.2-0.4,0.2-0.8,0.2-1.3c0-0.5-0.1-0.9-0.3-1.2c-0.2-0.3-0.5-0.6-0.8-0.8c-0.3-0.2-0.7-0.4-1.1-0.5c-0.4-0.1-0.9-0.3-1.3-0.4  c-0.4-0.1-0.9-0.3-1.3-0.5c-0.4-0.2-0.8-0.4-1.1-0.7c-0.3-0.3-0.6-0.6-0.8-1c-0.2-0.4-0.3-0.9-0.3-1.5c0-0.5,0.1-0.9,0.3-1.4  c0.2-0.4,0.4-0.8,0.8-1.2c0.3-0.3,0.8-0.6,1.3-0.8c0.5-0.2,1.1-0.3,1.7-0.3c0.7,0,1.4,0.1,2,0.3c0.6,0.2,1.1,0.6,1.6,1.1  L41.5,147.4z"></path>
        <path fill="#093855" d="M44.9,149.8v6.3c0,0.9,0.2,1.7,0.6,2.2c0.4,0.5,1.1,0.8,1.9,0.8c0.6,0,1.2-0.2,1.8-0.5  c0.6-0.3,1.1-0.8,1.5-1.4v-7.4h0.9v9.9h-0.5c-0.2,0-0.3-0.1-0.3-0.3l-0.1-1.5c-0.5,0.6-1,1-1.6,1.4c-0.6,0.3-1.3,0.5-2,0.5  c-0.6,0-1-0.1-1.4-0.3c-0.4-0.2-0.8-0.4-1-0.7c-0.3-0.3-0.5-0.7-0.6-1.2c-0.1-0.5-0.2-1-0.2-1.6v-6.3H44.9z"></path>
        <path fill="#093855" d="M60.9,159.7c-0.2,0-0.3-0.1-0.4-0.3l-0.1-1.3c-0.3,0.3-0.5,0.5-0.8,0.7c-0.3,0.2-0.5,0.4-0.8,0.5  c-0.3,0.1-0.6,0.3-0.9,0.3c-0.3,0.1-0.7,0.1-1.1,0.1c-0.3,0-0.7,0-1-0.1c-0.3-0.1-0.6-0.3-0.8-0.5c-0.2-0.2-0.4-0.5-0.6-0.8  c-0.1-0.3-0.2-0.7-0.2-1.2c0-0.4,0.1-0.8,0.4-1.2c0.2-0.4,0.6-0.7,1.1-0.9c0.5-0.3,1.2-0.5,2-0.6c0.8-0.2,1.8-0.3,2.9-0.3v-1  c0-0.9-0.2-1.6-0.6-2.1c-0.4-0.5-1-0.7-1.8-0.7c-0.5,0-0.9,0.1-1.2,0.2c-0.3,0.1-0.6,0.3-0.9,0.4c-0.2,0.2-0.4,0.3-0.6,0.4  c-0.1,0.1-0.3,0.2-0.4,0.2c-0.1,0-0.2-0.1-0.3-0.2l-0.2-0.3c0.5-0.5,1.1-0.9,1.6-1.2c0.6-0.3,1.2-0.4,1.9-0.4c0.5,0,1,0.1,1.4,0.3  c0.4,0.2,0.7,0.4,1,0.7c0.3,0.3,0.5,0.7,0.6,1.1c0.1,0.4,0.2,0.9,0.2,1.5v6.5H60.9z M57,159.2c0.4,0,0.7,0,1.1-0.1  c0.3-0.1,0.6-0.2,0.9-0.3c0.3-0.1,0.5-0.3,0.8-0.5c0.2-0.2,0.5-0.4,0.7-0.7V155c-0.9,0-1.8,0.1-2.4,0.2c-0.7,0.1-1.2,0.3-1.7,0.5  c-0.4,0.2-0.8,0.4-1,0.7c-0.2,0.3-0.3,0.6-0.3,0.9c0,0.3,0.1,0.6,0.2,0.9c0.1,0.2,0.3,0.4,0.4,0.6c0.2,0.2,0.4,0.3,0.6,0.3  C56.5,159.2,56.7,159.2,57,159.2z"></path>
        <path fill="#093855" d="M67.4,163.2v-13.4h0.5c0.1,0,0.2,0,0.2,0.1c0.1,0,0.1,0.1,0.1,0.2l0.1,1.5c0.4-0.6,1-1.1,1.5-1.4  c0.6-0.4,1.2-0.5,2-0.5c1.2,0,2.2,0.4,2.8,1.3c0.7,0.8,1,2.1,1,3.8c0,0.7-0.1,1.4-0.3,2c-0.2,0.6-0.5,1.2-0.8,1.6  c-0.4,0.5-0.8,0.8-1.3,1.1c-0.5,0.3-1.2,0.4-1.8,0.4c-0.7,0-1.3-0.1-1.8-0.4c-0.5-0.2-0.9-0.6-1.3-1.1v4.8H67.4z M71.5,150.4  c-0.7,0-1.3,0.2-1.8,0.5c-0.5,0.3-1,0.8-1.4,1.4v5.2c0.4,0.6,0.8,1,1.3,1.2c0.5,0.2,1,0.3,1.6,0.3c0.6,0,1.1-0.1,1.5-0.3  c0.4-0.2,0.8-0.5,1.1-0.9c0.3-0.4,0.5-0.9,0.7-1.4c0.1-0.5,0.2-1.1,0.2-1.8c0-1.5-0.3-2.6-0.8-3.3  C73.3,150.8,72.5,150.4,71.5,150.4z"></path>
        <path fill="#093855" d="M78.8,145.3v14.5h-0.9v-14.5H78.8z"></path>
        <path fill="#093855" d="M88.3,159.7c-0.2,0-0.3-0.1-0.4-0.3l-0.1-1.3c-0.3,0.3-0.5,0.5-0.8,0.7c-0.3,0.2-0.5,0.4-0.8,0.5  c-0.3,0.1-0.6,0.3-0.9,0.3c-0.3,0.1-0.7,0.1-1.1,0.1c-0.3,0-0.7,0-1-0.1c-0.3-0.1-0.6-0.3-0.8-0.5c-0.2-0.2-0.4-0.5-0.6-0.8  c-0.1-0.3-0.2-0.7-0.2-1.2c0-0.4,0.1-0.8,0.4-1.2c0.2-0.4,0.6-0.7,1.1-0.9c0.5-0.3,1.2-0.5,2-0.6c0.8-0.2,1.8-0.3,2.9-0.3v-1  c0-0.9-0.2-1.6-0.6-2.1c-0.4-0.5-1-0.7-1.8-0.7c-0.5,0-0.9,0.1-1.2,0.2c-0.3,0.1-0.6,0.3-0.9,0.4c-0.2,0.2-0.4,0.3-0.6,0.4  c-0.1,0.1-0.3,0.2-0.4,0.2c-0.1,0-0.2-0.1-0.3-0.2l-0.2-0.3c0.5-0.5,1.1-0.9,1.6-1.2c0.6-0.3,1.2-0.4,1.9-0.4c0.5,0,1,0.1,1.4,0.3  c0.4,0.2,0.7,0.4,1,0.7c0.3,0.3,0.5,0.7,0.6,1.1s0.2,0.9,0.2,1.5v6.5H88.3z M84.3,159.2c0.4,0,0.7,0,1.1-0.1  c0.3-0.1,0.6-0.2,0.9-0.3c0.3-0.1,0.5-0.3,0.8-0.5c0.2-0.2,0.5-0.4,0.7-0.7V155c-0.9,0-1.8,0.1-2.4,0.2c-0.7,0.1-1.2,0.3-1.7,0.5  c-0.4,0.2-0.8,0.4-1,0.7c-0.2,0.3-0.3,0.6-0.3,0.9c0,0.3,0.1,0.6,0.2,0.9c0.1,0.2,0.3,0.4,0.4,0.6c0.2,0.2,0.4,0.3,0.6,0.3  C83.8,159.2,84,159.2,84.3,159.2z"></path>
        <path fill="#093855" d="M93.9,159.9c-0.7,0-1.2-0.2-1.6-0.6c-0.4-0.4-0.6-0.9-0.6-1.7v-6.8h-1.4c-0.1,0-0.1,0-0.2-0.1  c0,0-0.1-0.1-0.1-0.2v-0.4l1.7-0.1l0.2-3.5c0-0.1,0-0.1,0.1-0.2c0,0,0.1-0.1,0.2-0.1h0.4v3.8h3.1v0.7h-3.1v6.7c0,0.3,0,0.5,0.1,0.7  c0.1,0.2,0.2,0.4,0.3,0.5c0.1,0.1,0.3,0.2,0.4,0.3s0.3,0.1,0.5,0.1c0.2,0,0.4,0,0.6-0.1c0.2-0.1,0.3-0.1,0.4-0.2  c0.1-0.1,0.2-0.2,0.3-0.2c0.1-0.1,0.1-0.1,0.2-0.1c0.1,0,0.1,0,0.2,0.1l0.3,0.4c-0.3,0.3-0.6,0.5-1,0.7  C94.8,159.8,94.4,159.9,93.9,159.9z"></path>
        <path fill="#093855" d="M104.3,159.7c-0.2,0-0.3-0.1-0.4-0.3l-0.1-1.3c-0.3,0.3-0.5,0.5-0.8,0.7c-0.3,0.2-0.5,0.4-0.8,0.5  c-0.3,0.1-0.6,0.3-0.9,0.3c-0.3,0.1-0.7,0.1-1.1,0.1c-0.3,0-0.7,0-1-0.1c-0.3-0.1-0.6-0.3-0.8-0.5c-0.2-0.2-0.4-0.5-0.6-0.8  c-0.1-0.3-0.2-0.7-0.2-1.2c0-0.4,0.1-0.8,0.4-1.2c0.2-0.4,0.6-0.7,1.1-0.9c0.5-0.3,1.2-0.5,2-0.6c0.8-0.2,1.8-0.3,2.9-0.3v-1  c0-0.9-0.2-1.6-0.6-2.1c-0.4-0.5-1-0.7-1.8-0.7c-0.5,0-0.9,0.1-1.2,0.2c-0.3,0.1-0.6,0.3-0.9,0.4c-0.2,0.2-0.4,0.3-0.6,0.4  c-0.1,0.1-0.3,0.2-0.4,0.2c-0.1,0-0.2-0.1-0.3-0.2l-0.2-0.3c0.5-0.5,1.1-0.9,1.6-1.2c0.6-0.3,1.2-0.4,1.9-0.4c0.5,0,1,0.1,1.4,0.3  c0.4,0.2,0.7,0.4,1,0.7c0.3,0.3,0.5,0.7,0.6,1.1s0.2,0.9,0.2,1.5v6.5H104.3z M100.3,159.2c0.4,0,0.7,0,1.1-0.1  c0.3-0.1,0.6-0.2,0.9-0.3c0.3-0.1,0.5-0.3,0.8-0.5c0.2-0.2,0.5-0.4,0.7-0.7V155c-0.9,0-1.8,0.1-2.4,0.2c-0.7,0.1-1.2,0.3-1.7,0.5  c-0.4,0.2-0.8,0.4-1,0.7c-0.2,0.3-0.3,0.6-0.3,0.9c0,0.3,0.1,0.6,0.2,0.9c0.1,0.2,0.3,0.4,0.4,0.6c0.2,0.2,0.4,0.3,0.6,0.3  C99.8,159.2,100,159.2,100.3,159.2z"></path>
        <path fill="#093855" d="M107.6,159.7v-8.9l-1.4-0.1c-0.2,0-0.3-0.1-0.3-0.2v-0.4h1.7v-1.3c0-0.6,0.1-1.1,0.2-1.5  c0.1-0.4,0.4-0.8,0.6-1.1c0.3-0.3,0.6-0.5,1-0.6c0.4-0.1,0.8-0.2,1.2-0.2c0.2,0,0.4,0,0.6,0.1c0.2,0,0.4,0.1,0.6,0.2l0,0.5  c0,0.1-0.1,0.1-0.2,0.1c-0.1,0-0.2,0-0.3,0c-0.1,0-0.3,0-0.5,0c-0.3,0-0.6,0-0.9,0.1c-0.3,0.1-0.5,0.3-0.7,0.5  c-0.2,0.2-0.4,0.5-0.5,0.8c-0.1,0.3-0.2,0.8-0.2,1.3v1.2h3.2v0.7h-3.2v8.9H107.6z"></path>
        <path fill="#093855" d="M117,149.7c0.7,0,1.3,0.1,1.9,0.4c0.6,0.2,1,0.6,1.4,1c0.4,0.4,0.7,1,0.9,1.6c0.2,0.6,0.3,1.3,0.3,2.1  c0,0.8-0.1,1.5-0.3,2.1c-0.2,0.6-0.5,1.2-0.9,1.6c-0.4,0.4-0.9,0.8-1.4,1c-0.6,0.2-1.2,0.4-1.9,0.4c-0.7,0-1.3-0.1-1.9-0.4  s-1-0.6-1.4-1c-0.4-0.4-0.7-1-0.9-1.6c-0.2-0.6-0.3-1.3-0.3-2.1c0-0.8,0.1-1.5,0.3-2.1c0.2-0.6,0.5-1.2,0.9-1.6s0.9-0.8,1.4-1  C115.7,149.8,116.3,149.7,117,149.7z M117,159.1c0.6,0,1.1-0.1,1.5-0.3c0.4-0.2,0.8-0.5,1.1-0.9c0.3-0.4,0.5-0.8,0.7-1.4  s0.2-1.1,0.2-1.8c0-0.7-0.1-1.3-0.2-1.8c-0.1-0.5-0.4-1-0.7-1.4c-0.3-0.4-0.7-0.7-1.1-0.9s-1-0.3-1.5-0.3s-1.1,0.1-1.5,0.3  c-0.4,0.2-0.8,0.5-1.1,0.9c-0.3,0.4-0.5,0.8-0.7,1.4c-0.1,0.5-0.2,1.1-0.2,1.8c0,0.7,0.1,1.3,0.2,1.8s0.4,1,0.7,1.4  c0.3,0.4,0.7,0.7,1.1,0.9C115.9,159,116.4,159.1,117,159.1z"></path>
        <path fill="#093855" d="M123.6,159.7v-9.9h0.5c0.1,0,0.2,0,0.2,0.1c0,0,0.1,0.1,0.1,0.2l0.1,2.1c0.3-0.8,0.7-1.4,1.3-1.9  c0.5-0.5,1.2-0.7,2-0.7c0.3,0,0.6,0,0.8,0.1c0.3,0.1,0.5,0.2,0.7,0.3l-0.1,0.7c0,0.1-0.1,0.2-0.2,0.2c0,0-0.1,0-0.2,0  c-0.1,0-0.2-0.1-0.3-0.1c-0.1,0-0.2-0.1-0.4-0.1c-0.2,0-0.3,0-0.5,0c-0.8,0-1.4,0.2-1.8,0.7c-0.5,0.5-0.9,1.1-1.2,2v6.4H123.6z"></path>
        <path fill="#093855" d="M131.1,159.7v-9.9h0.5c0.2,0,0.3,0.1,0.3,0.2l0.1,1.4c0.2-0.3,0.4-0.5,0.6-0.7c0.2-0.2,0.5-0.4,0.7-0.6  c0.2-0.2,0.5-0.3,0.8-0.4c0.3-0.1,0.6-0.1,0.9-0.1c0.7,0,1.3,0.2,1.7,0.6c0.4,0.4,0.7,1,0.9,1.8c0.1-0.4,0.3-0.8,0.5-1.1  c0.2-0.3,0.5-0.5,0.7-0.7c0.3-0.2,0.6-0.3,0.9-0.4c0.3-0.1,0.7-0.1,1-0.1c0.5,0,0.9,0.1,1.3,0.2c0.4,0.2,0.7,0.4,1,0.7  c0.3,0.3,0.5,0.7,0.6,1.2c0.1,0.5,0.2,1,0.2,1.6v6.3H143v-6.3c0-1-0.2-1.7-0.6-2.2c-0.4-0.5-1-0.8-1.8-0.8c-0.3,0-0.7,0.1-1,0.2  c-0.3,0.1-0.6,0.3-0.8,0.6c-0.2,0.2-0.4,0.6-0.6,0.9c-0.1,0.4-0.2,0.8-0.2,1.3v6.3H137v-6.3c0-1-0.2-1.7-0.6-2.2  c-0.4-0.5-0.9-0.8-1.7-0.8c-0.5,0-1,0.2-1.5,0.5c-0.5,0.3-0.9,0.8-1.2,1.3v7.5H131.1z"></path>
        <path fill="#093855" d="M152.9,159.7c-0.2,0-0.3-0.1-0.4-0.3l-0.1-1.3c-0.3,0.3-0.5,0.5-0.8,0.7c-0.3,0.2-0.5,0.4-0.8,0.5  c-0.3,0.1-0.6,0.3-0.9,0.3c-0.3,0.1-0.7,0.1-1.1,0.1c-0.3,0-0.7,0-1-0.1c-0.3-0.1-0.6-0.3-0.8-0.5c-0.2-0.2-0.4-0.5-0.6-0.8  c-0.1-0.3-0.2-0.7-0.2-1.2c0-0.4,0.1-0.8,0.4-1.2c0.2-0.4,0.6-0.7,1.1-0.9c0.5-0.3,1.2-0.5,2-0.6c0.8-0.2,1.8-0.3,2.9-0.3v-1  c0-0.9-0.2-1.6-0.6-2.1c-0.4-0.5-1-0.7-1.8-0.7c-0.5,0-0.9,0.1-1.2,0.2c-0.3,0.1-0.6,0.3-0.9,0.4c-0.2,0.2-0.4,0.3-0.6,0.4  c-0.1,0.1-0.3,0.2-0.4,0.2c-0.1,0-0.2-0.1-0.3-0.2l-0.2-0.3c0.5-0.5,1.1-0.9,1.6-1.2c0.6-0.3,1.2-0.4,1.9-0.4c0.5,0,1,0.1,1.4,0.3  c0.4,0.2,0.7,0.4,1,0.7c0.3,0.3,0.5,0.7,0.6,1.1s0.2,0.9,0.2,1.5v6.5H152.9z M148.9,159.2c0.4,0,0.7,0,1.1-0.1  c0.3-0.1,0.6-0.2,0.9-0.3c0.3-0.1,0.5-0.3,0.8-0.5c0.2-0.2,0.5-0.4,0.7-0.7V155c-0.9,0-1.8,0.1-2.4,0.2c-0.7,0.1-1.2,0.3-1.7,0.5  c-0.4,0.2-0.8,0.4-1,0.7c-0.2,0.3-0.3,0.6-0.3,0.9c0,0.3,0.1,0.6,0.2,0.9c0.1,0.2,0.3,0.4,0.4,0.6c0.2,0.2,0.4,0.3,0.6,0.3  C148.4,159.2,148.6,159.2,148.9,159.2z"></path>
        <path fill="#093855" d="M160.9,146.4c0,0.1,0,0.2-0.1,0.3c0,0.1-0.1,0.2-0.2,0.3c-0.1,0.1-0.2,0.1-0.3,0.2c-0.1,0-0.2,0.1-0.3,0.1  c-0.1,0-0.2,0-0.3-0.1c-0.1,0-0.2-0.1-0.3-0.2c-0.1-0.1-0.1-0.2-0.2-0.3c0-0.1-0.1-0.2-0.1-0.3c0-0.1,0-0.2,0.1-0.3  c0-0.1,0.1-0.2,0.2-0.3c0.1-0.1,0.2-0.1,0.3-0.2c0.1,0,0.2-0.1,0.3-0.1c0.1,0,0.2,0,0.3,0.1c0.1,0,0.2,0.1,0.3,0.2  c0.1,0.1,0.1,0.2,0.2,0.3C160.9,146.2,160.9,146.3,160.9,146.4z M160.5,149.8v9.9h-0.9v-9.9H160.5z"></path>
        <path fill="#093855" d="M163.6,159.7v-9.9h0.5c0.2,0,0.3,0.1,0.3,0.2l0.1,1.5c0.5-0.6,1-1,1.6-1.4c0.6-0.3,1.3-0.5,2-0.5  c0.5,0,1,0.1,1.4,0.3c0.4,0.2,0.8,0.4,1,0.7c0.3,0.3,0.5,0.7,0.6,1.2c0.1,0.5,0.2,1,0.2,1.6v6.3h-0.9v-6.3c0-0.9-0.2-1.7-0.6-2.2  c-0.4-0.5-1.1-0.8-2-0.8c-0.7,0-1.3,0.2-1.8,0.5c-0.6,0.3-1.1,0.8-1.5,1.4v7.4H163.6z"></path>
        <path fill="#093855" d="M176.7,159.9c-0.7,0-1.2-0.2-1.6-0.6c-0.4-0.4-0.6-0.9-0.6-1.7v-6.8h-1.4c-0.1,0-0.1,0-0.2-0.1  c0,0-0.1-0.1-0.1-0.2v-0.4l1.7-0.1l0.2-3.5c0-0.1,0-0.1,0.1-0.2s0.1-0.1,0.2-0.1h0.4v3.8h3.1v0.7h-3.1v6.7c0,0.3,0,0.5,0.1,0.7  c0.1,0.2,0.2,0.4,0.3,0.5c0.1,0.1,0.3,0.2,0.4,0.3s0.3,0.1,0.5,0.1c0.2,0,0.4,0,0.6-0.1c0.2-0.1,0.3-0.1,0.4-0.2  c0.1-0.1,0.2-0.2,0.3-0.2c0.1-0.1,0.1-0.1,0.2-0.1c0.1,0,0.1,0,0.2,0.1l0.3,0.4c-0.3,0.3-0.6,0.5-1,0.7S177.1,159.9,176.7,159.9z"></path>
        <path fill="#093855" d="M184.4,149.7c0.6,0,1.1,0.1,1.5,0.3c0.5,0.2,0.9,0.5,1.2,0.8c0.3,0.4,0.6,0.8,0.8,1.4  c0.2,0.5,0.3,1.2,0.3,1.9c0,0.1,0,0.2-0.1,0.3c0,0.1-0.1,0.1-0.2,0.1h-7.1v0.2c0,0.7,0.1,1.4,0.3,2c0.2,0.6,0.4,1,0.7,1.4  c0.3,0.4,0.7,0.7,1.2,0.9c0.5,0.2,1,0.3,1.5,0.3c0.5,0,0.9-0.1,1.3-0.2c0.4-0.1,0.7-0.2,0.9-0.4c0.2-0.1,0.4-0.3,0.6-0.4  c0.1-0.1,0.3-0.2,0.3-0.2c0.1,0,0.2,0,0.2,0.1l0.3,0.3c-0.2,0.2-0.4,0.4-0.6,0.6c-0.3,0.2-0.6,0.3-0.9,0.4c-0.3,0.1-0.7,0.2-1,0.3  c-0.4,0.1-0.7,0.1-1.1,0.1c-0.7,0-1.3-0.1-1.9-0.4c-0.6-0.2-1-0.6-1.4-1c-0.4-0.5-0.7-1-0.9-1.7c-0.2-0.7-0.3-1.4-0.3-2.2  c0-0.7,0.1-1.4,0.3-2c0.2-0.6,0.5-1.1,0.9-1.6c0.4-0.4,0.8-0.8,1.4-1C183.1,149.8,183.7,149.7,184.4,149.7z M184.5,150.4  c-0.5,0-1,0.1-1.4,0.2c-0.4,0.2-0.8,0.4-1,0.7c-0.3,0.3-0.5,0.7-0.7,1.1c-0.2,0.4-0.3,0.9-0.4,1.4h6.5c0-0.5-0.1-1-0.2-1.4  c-0.1-0.4-0.4-0.8-0.6-1.1c-0.3-0.3-0.6-0.5-1-0.7C185.3,150.5,184.9,150.4,184.5,150.4z"></path>
        <path fill="#093855" d="M191.7,145.3v14.5h-0.9v-14.5H191.7z"></path>
        <path fill="#093855" d="M196.5,146.4c0,0.1,0,0.2-0.1,0.3c0,0.1-0.1,0.2-0.2,0.3c-0.1,0.1-0.2,0.1-0.3,0.2c-0.1,0-0.2,0.1-0.3,0.1  c-0.1,0-0.2,0-0.3-0.1c-0.1,0-0.2-0.1-0.3-0.2c-0.1-0.1-0.1-0.2-0.2-0.3c0-0.1-0.1-0.2-0.1-0.3c0-0.1,0-0.2,0.1-0.3  c0-0.1,0.1-0.2,0.2-0.3c0.1-0.1,0.2-0.1,0.3-0.2c0.1,0,0.2-0.1,0.3-0.1c0.1,0,0.2,0,0.3,0.1c0.1,0,0.2,0.1,0.3,0.2  c0.1,0.1,0.1,0.2,0.2,0.3C196.4,146.2,196.5,146.3,196.5,146.4z M196,149.8v9.9h-0.9v-9.9H196z"></path>
        <path fill="#093855" d="M202.4,149.7c0.4,0,0.8,0.1,1.2,0.2c0.4,0.1,0.7,0.3,1,0.4h2.5v0.3c0,0.2-0.1,0.3-0.3,0.3l-1.5,0.1  c0.2,0.3,0.3,0.5,0.4,0.9c0.1,0.3,0.1,0.7,0.1,1c0,0.5-0.1,0.9-0.3,1.3c-0.2,0.4-0.4,0.7-0.7,1c-0.3,0.3-0.7,0.5-1.1,0.6  c-0.4,0.2-0.9,0.2-1.4,0.2c-0.6,0-1.1-0.1-1.6-0.3c-0.3,0.2-0.5,0.3-0.7,0.6c-0.2,0.2-0.2,0.4-0.2,0.6c0,0.3,0.1,0.5,0.3,0.7  c0.2,0.2,0.5,0.3,0.8,0.3c0.3,0.1,0.7,0.1,1.1,0.1c0.4,0,0.8,0,1.3,0.1c0.4,0,0.9,0.1,1.3,0.1c0.4,0.1,0.8,0.2,1.1,0.3  c0.3,0.1,0.6,0.4,0.8,0.6c0.2,0.3,0.3,0.6,0.3,1.1c0,0.4-0.1,0.8-0.3,1.2c-0.2,0.4-0.5,0.7-0.9,1c-0.4,0.3-0.9,0.5-1.4,0.7  c-0.6,0.2-1.2,0.3-1.9,0.3c-0.7,0-1.3-0.1-1.8-0.2c-0.5-0.1-1-0.3-1.3-0.6c-0.4-0.2-0.6-0.5-0.8-0.8c-0.2-0.3-0.3-0.7-0.3-1  c0-0.5,0.2-1,0.5-1.4c0.3-0.4,0.8-0.7,1.4-0.9c-0.3-0.1-0.6-0.3-0.8-0.5c-0.2-0.2-0.3-0.5-0.3-0.9c0-0.1,0-0.3,0.1-0.4  c0.1-0.2,0.1-0.3,0.2-0.5c0.1-0.1,0.2-0.3,0.4-0.4c0.1-0.1,0.3-0.3,0.5-0.4c-0.5-0.3-0.8-0.6-1.1-1.1c-0.3-0.5-0.4-1-0.4-1.6  c0-0.5,0.1-0.9,0.3-1.3c0.2-0.4,0.4-0.7,0.7-1c0.3-0.3,0.7-0.5,1.1-0.6S201.9,149.7,202.4,149.7z M206.1,160.4  c0-0.3-0.1-0.6-0.2-0.8c-0.2-0.2-0.4-0.3-0.7-0.4c-0.3-0.1-0.6-0.2-0.9-0.2c-0.4,0-0.7-0.1-1.1-0.1c-0.4,0-0.8,0-1.2-0.1  c-0.4,0-0.8-0.1-1.1-0.1c-0.3,0.1-0.5,0.2-0.7,0.3c-0.2,0.1-0.4,0.3-0.6,0.4c-0.2,0.2-0.3,0.3-0.4,0.5c-0.1,0.2-0.1,0.4-0.1,0.6  c0,0.3,0.1,0.6,0.2,0.8c0.1,0.2,0.4,0.5,0.7,0.6c0.3,0.2,0.6,0.3,1.1,0.4c0.4,0.1,0.9,0.2,1.4,0.2c0.5,0,1-0.1,1.4-0.2  c0.4-0.1,0.8-0.3,1.1-0.5c0.3-0.2,0.6-0.5,0.8-0.7C206,161.1,206.1,160.7,206.1,160.4z M202.4,155.4c0.4,0,0.8-0.1,1.1-0.2  c0.3-0.1,0.6-0.3,0.8-0.5c0.2-0.2,0.4-0.5,0.5-0.8c0.1-0.3,0.2-0.6,0.2-1c0-0.4-0.1-0.7-0.2-1c-0.1-0.3-0.3-0.6-0.5-0.8  c-0.2-0.2-0.5-0.4-0.8-0.5c-0.3-0.1-0.7-0.2-1.1-0.2c-0.4,0-0.8,0.1-1.1,0.2c-0.3,0.1-0.6,0.3-0.8,0.5c-0.2,0.2-0.4,0.5-0.5,0.8  c-0.1,0.3-0.2,0.6-0.2,1c0,0.4,0.1,0.7,0.2,1c0.1,0.3,0.3,0.6,0.5,0.8c0.2,0.2,0.5,0.4,0.8,0.5C201.6,155.3,202,155.4,202.4,155.4z  "></path>
        <path fill="#093855" d="M212.5,149.7c0.6,0,1.1,0.1,1.5,0.3c0.5,0.2,0.9,0.5,1.2,0.8c0.3,0.4,0.6,0.8,0.8,1.4  c0.2,0.5,0.3,1.2,0.3,1.9c0,0.1,0,0.2-0.1,0.3c0,0.1-0.1,0.1-0.2,0.1H209v0.2c0,0.7,0.1,1.4,0.3,2c0.2,0.6,0.4,1,0.7,1.4  c0.3,0.4,0.7,0.7,1.2,0.9c0.5,0.2,1,0.3,1.5,0.3c0.5,0,0.9-0.1,1.3-0.2c0.4-0.1,0.7-0.2,0.9-0.4c0.2-0.1,0.4-0.3,0.6-0.4  c0.1-0.1,0.3-0.2,0.3-0.2c0.1,0,0.2,0,0.2,0.1l0.3,0.3c-0.2,0.2-0.4,0.4-0.6,0.6c-0.3,0.2-0.6,0.3-0.9,0.4c-0.3,0.1-0.7,0.2-1,0.3  c-0.4,0.1-0.7,0.1-1.1,0.1c-0.7,0-1.3-0.1-1.9-0.4c-0.6-0.2-1-0.6-1.4-1c-0.4-0.5-0.7-1-0.9-1.7c-0.2-0.7-0.3-1.4-0.3-2.2  c0-0.7,0.1-1.4,0.3-2c0.2-0.6,0.5-1.1,0.9-1.6c0.4-0.4,0.8-0.8,1.4-1C211.2,149.8,211.8,149.7,212.5,149.7z M212.5,150.4  c-0.5,0-1,0.1-1.4,0.2c-0.4,0.2-0.8,0.4-1,0.7c-0.3,0.3-0.5,0.7-0.7,1.1c-0.2,0.4-0.3,0.9-0.4,1.4h6.5c0-0.5-0.1-1-0.2-1.4  c-0.1-0.4-0.4-0.8-0.6-1.1c-0.3-0.3-0.6-0.5-1-0.7C213.4,150.5,213,150.4,212.5,150.4z"></path>
        <path fill="#093855" d="M218.6,159.7v-9.9h0.5c0.2,0,0.3,0.1,0.3,0.2l0.1,1.5c0.5-0.6,1-1,1.6-1.4c0.6-0.3,1.3-0.5,2-0.5  c0.5,0,1,0.1,1.4,0.3c0.4,0.2,0.8,0.4,1,0.7c0.3,0.3,0.5,0.7,0.6,1.2c0.1,0.5,0.2,1,0.2,1.6v6.3h-0.9v-6.3c0-0.9-0.2-1.7-0.6-2.2  c-0.4-0.5-1.1-0.8-2-0.8c-0.7,0-1.3,0.2-1.8,0.5c-0.6,0.3-1.1,0.8-1.5,1.4v7.4H218.6z"></path>
        <path fill="#093855" d="M231.6,159.9c-0.7,0-1.2-0.2-1.6-0.6c-0.4-0.4-0.6-0.9-0.6-1.7v-6.8h-1.4c-0.1,0-0.1,0-0.2-0.1  c0,0-0.1-0.1-0.1-0.2v-0.4l1.7-0.1l0.2-3.5c0-0.1,0-0.1,0.1-0.2c0,0,0.1-0.1,0.2-0.1h0.4v3.8h3.1v0.7h-3.1v6.7c0,0.3,0,0.5,0.1,0.7  c0.1,0.2,0.2,0.4,0.3,0.5c0.1,0.1,0.3,0.2,0.4,0.3c0.2,0.1,0.3,0.1,0.5,0.1c0.2,0,0.4,0,0.6-0.1c0.2-0.1,0.3-0.1,0.4-0.2  c0.1-0.1,0.2-0.2,0.3-0.2c0.1-0.1,0.1-0.1,0.2-0.1c0.1,0,0.1,0,0.2,0.1l0.3,0.4c-0.3,0.3-0.6,0.5-1,0.7S232.1,159.9,231.6,159.9z"></path>
        <path fill="#093855" d="M239.4,149.7c0.6,0,1.1,0.1,1.5,0.3c0.5,0.2,0.9,0.5,1.2,0.8c0.3,0.4,0.6,0.8,0.8,1.4  c0.2,0.5,0.3,1.2,0.3,1.9c0,0.1,0,0.2-0.1,0.3c0,0.1-0.1,0.1-0.2,0.1h-7.1v0.2c0,0.7,0.1,1.4,0.3,2c0.2,0.6,0.4,1,0.7,1.4  c0.3,0.4,0.7,0.7,1.2,0.9c0.5,0.2,1,0.3,1.5,0.3c0.5,0,0.9-0.1,1.3-0.2c0.4-0.1,0.7-0.2,0.9-0.4c0.2-0.1,0.4-0.3,0.6-0.4  c0.1-0.1,0.3-0.2,0.3-0.2c0.1,0,0.2,0,0.2,0.1l0.3,0.3c-0.2,0.2-0.4,0.4-0.6,0.6c-0.3,0.2-0.6,0.3-0.9,0.4c-0.3,0.1-0.7,0.2-1,0.3  c-0.4,0.1-0.7,0.1-1.1,0.1c-0.7,0-1.3-0.1-1.9-0.4c-0.6-0.2-1-0.6-1.4-1c-0.4-0.5-0.7-1-0.9-1.7c-0.2-0.7-0.3-1.4-0.3-2.2  c0-0.7,0.1-1.4,0.3-2c0.2-0.6,0.5-1.1,0.9-1.6c0.4-0.4,0.8-0.8,1.4-1C238,149.8,238.7,149.7,239.4,149.7z M239.4,150.4  c-0.5,0-1,0.1-1.4,0.2c-0.4,0.2-0.8,0.4-1,0.7c-0.3,0.3-0.5,0.7-0.7,1.1c-0.2,0.4-0.3,0.9-0.4,1.4h6.5c0-0.5-0.1-1-0.2-1.4  c-0.1-0.4-0.4-0.8-0.6-1.1c-0.3-0.3-0.6-0.5-1-0.7C240.3,150.5,239.8,150.4,239.4,150.4z"></path>
        <path fill="#093855" d="M244.9,159c0-0.1,0-0.2,0.1-0.4c0-0.1,0.1-0.2,0.2-0.3c0.1-0.1,0.2-0.1,0.3-0.2c0.1,0,0.2-0.1,0.4-0.1  c0.1,0,0.2,0,0.4,0.1c0.1,0,0.2,0.1,0.3,0.2c0.1,0.1,0.1,0.2,0.2,0.3c0,0.1,0.1,0.2,0.1,0.4c0,0.1,0,0.3-0.1,0.4  c0,0.1-0.1,0.2-0.2,0.3c-0.1,0.1-0.2,0.1-0.3,0.2c-0.1,0-0.2,0.1-0.4,0.1c-0.3,0-0.5-0.1-0.7-0.3  C244.9,159.4,244.9,159.2,244.9,159z"></path>
        <path fill="#CEA225" d="M222.5,74c12.9,5.2,19.1,19.8,13.9,32.7c-5.2,12.9-19.8,19.1-32.7,13.9c-12.9-5.2-19.1-19.8-13.9-32.7  C195,75.1,209.7,68.9,222.5,74z M176.3,82.5c-8.2,20.4,1.7,43.5,22,51.7c20.4,8.2,43.5-1.7,51.7-22c8.2-20.4-1.7-43.5-22-51.7  C207.6,52.3,184.5,62.1,176.3,82.5z"></path>
        <g>
            <g>
                <path fill="#CEA225" d="M190.3,59.6c-0.1,0-0.3-0.1-0.4-0.2l-3.9-8H25.9c-0.2,0-0.4-0.2-0.4-0.4c0-0.2,0.2-0.4,0.4-0.4h160.4    c0.1,0,0.3,0.1,0.4,0.2l4.1,8.2c0.1,0.2,0,0.4-0.2,0.5C190.4,59.6,190.4,59.6,190.3,59.6z"></path>
            </g>
            <circle fill="#CEA225" cx="190.3" cy="59.2" r="2.6"></circle>
        </g>
        <path fill="#093855" d="M59.4,120.7c2.4,0,4.6-0.4,6.5-1.2c1.9-0.8,3.5-2,4.8-3.5c1.3-1.5,2.3-3.3,3-5.5c0.7-2.2,1-4.6,1-7.4V57  h18.1v46.2c0,4.8-0.8,9.2-2.3,13.2c-1.6,4-3.8,7.4-6.7,10.3c-2.9,2.9-6.4,5.1-10.5,6.7c-4.1,1.6-8.8,2.4-14,2.4  c-5.2,0-9.9-0.8-14-2.4c-4.1-1.6-7.7-3.9-10.5-6.7c-2.9-2.9-5.1-6.3-6.6-10.3c-1.5-4-2.3-8.4-2.3-13.2V57h18.1v46.1  c0,2.7,0.3,5.2,1,7.4c0.7,2.2,1.7,4,3,5.5c1.3,1.5,2.9,2.7,4.8,3.5C54.8,120.3,56.9,120.7,59.4,120.7z M114,57.2  c0.5,0.1,1,0.2,1.4,0.4c0.4,0.2,0.8,0.5,1.2,0.8c0.4,0.4,0.8,0.8,1.3,1.4l37,46.8c-0.1-1.5-0.2-3-0.3-4.4c-0.1-1.4-0.1-2.7-0.1-4  V57h15.9v78h-9.4c-1.4,0-2.6-0.2-3.5-0.6c-1-0.4-1.9-1.2-2.8-2.4l-36.8-46.4c0.1,1.4,0.2,2.7,0.3,4c0.1,1.3,0.1,2.5,0.1,3.7V135  h-15.9V57h9.5C112.8,57,113.5,57.1,114,57.2z M213.9,70.6c3.4-0.1,6.9,0.4,10.2,1.8c12.9,5.2,19.1,19.8,13.9,32.7  c-5.2,12.9-19.8,19.1-32.7,13.9c-12.6-5.1-18.8-19.2-14.2-31.9L177.9,81c-8.1,20.3,1.7,43.4,22.1,51.6c20.4,8.2,43.5-1.7,51.7-22  c8.2-20.4-1.7-43.5-22-51.7c-5.6-2.3-11.4-3.1-17-2.8L213.9,70.6z"></path>
        <path fill="#093855" d="M42.9,32.4c0.3,0.6,0.5,1.2,0.8,1.8c0.2-0.6,0.5-1.3,0.8-1.9c0.3-0.6,0.6-1.2,0.8-1.7l8.1-16  c0.1-0.3,0.3-0.5,0.4-0.6c0.2-0.2,0.3-0.3,0.5-0.3c0.2-0.1,0.4-0.1,0.6-0.1c0.2,0,0.5,0,0.8,0h5.6v31.6h-6.5V27  c0-0.9,0-1.8,0.1-2.9l-8.4,16.2c-0.3,0.5-0.6,0.9-1.1,1.1c-0.4,0.3-0.9,0.4-1.5,0.4h-1c-0.6,0-1.1-0.1-1.5-0.4  c-0.4-0.3-0.8-0.6-1.1-1.1l-8.4-16.3c0.1,0.5,0.1,1,0.1,1.5c0,0.5,0,1,0,1.4v18.2h-6.5V13.6h5.6c0.3,0,0.6,0,0.8,0  c0.2,0,0.5,0,0.6,0.1c0.2,0.1,0.4,0.2,0.5,0.3c0.2,0.2,0.3,0.4,0.4,0.6l8.1,16C42.3,31.2,42.6,31.8,42.9,32.4z M73.3,45.1h-7.4  V13.5h7.4V45.1z M82,13.6c0.2,0,0.4,0.1,0.6,0.2c0.2,0.1,0.3,0.2,0.5,0.3c0.2,0.1,0.3,0.3,0.5,0.6l15,19c-0.1-0.6-0.1-1.2-0.1-1.8  c0-0.6,0-1.1,0-1.6V13.5h6.5v31.6h-3.8c-0.6,0-1-0.1-1.4-0.3c-0.4-0.2-0.8-0.5-1.1-1L83.7,25.1c0,0.5,0.1,1.1,0.1,1.6  c0,0.5,0,1,0,1.5v16.9h-6.5V13.5h3.9C81.5,13.5,81.8,13.5,82,13.6z M136.3,45.1h-7.4V31.8h-12.8v13.4h-7.4V13.5h7.4v13.2h12.8V13.5  h7.4V45.1z M171.1,45.1h-5.7c-0.6,0-1.2-0.1-1.6-0.4c-0.4-0.3-0.7-0.7-0.9-1.1l-1.9-5.5h-12l-1.9,5.5c-0.1,0.4-0.4,0.8-0.8,1.1  c-0.4,0.3-0.9,0.5-1.5,0.5h-5.7l12.2-31.6h7.5L171.1,45.1z M150.8,33.1h8.6l-2.9-8.7c-0.2-0.5-0.4-1.2-0.7-1.9  c-0.3-0.7-0.5-1.6-0.7-2.4c-0.2,0.9-0.5,1.7-0.7,2.5c-0.2,0.8-0.5,1.4-0.7,2L150.8,33.1z"></path>
    </g></svg>